{
    "asset" : {
        "generator" : "Khronos glTF Blender I/O v3.4.50",
        "version" : "2.0"
    },
    "scene" : 0,
    "scenes" : [
        {
            "name" : "Scene",
            "nodes" : [
                0
            ]
        }
    ],
    "nodes" : [
        {
            "mesh" : 0,
            "name" : "Blue",
            "scale" : [
                8.304198265075684,
                8.304198265075684,
                8.304198265075684
            ],
            "translation" : [
                -25.697132110595703,
                3.7079219818115234,
                -117.02610778808594
            ]
        }
    ],
    "animations" : [
        {
            "channels" : [
                {
                    "sampler" : 0,
                    "target" : {
                        "node" : 0,
                        "path" : "translation"
                    }
                },
                {
                    "sampler" : 1,
                    "target" : {
                        "node" : 0,
                        "path" : "rotation"
                    }
                },
                {
                    "sampler" : 2,
                    "target" : {
                        "node" : 0,
                        "path" : "scale"
                    }
                }
            ],
            "name" : "Blue",
            "samplers" : [
                {
                    "input" : 20,
                    "interpolation" : "LINEAR",
                    "output" : 21
                },
                {
                    "input" : 20,
                    "interpolation" : "LINEAR",
                    "output" : 22
                },
                {
                    "input" : 20,
                    "interpolation" : "LINEAR",
                    "output" : 23
                }
            ]
        }
    ],
    "materials" : [
        {
            "doubleSided" : true,
            "name" : "Blue",
            "pbrMetallicRoughness" : {
                "baseColorFactor" : [
                    0.04091520607471466,
                    0.09530746936798096,
                    0.20507875084877014,
                    1
                ],
                "metallicFactor" : 0,
                "roughnessFactor" : 0.25
            }
        },
        {
            "doubleSided" : true,
            "name" : "Red",
            "pbrMetallicRoughness" : {
                "baseColorFactor" : [
                    0.7156935930252075,
                    0.06847818195819855,
                    0.07036010175943375,
                    1
                ],
                "metallicFactor" : 0,
                "roughnessFactor" : 0.25
            }
        },
        {
            "doubleSided" : true,
            "name" : "Orange",
            "pbrMetallicRoughness" : {
                "baseColorFactor" : [
                    0.9386858344078064,
                    0.15896087884902954,
                    0.015208512544631958,
                    1
                ],
                "metallicFactor" : 0,
                "roughnessFactor" : 0.25
            }
        },
        {
            "doubleSided" : true,
            "name" : "Green",
            "pbrMetallicRoughness" : {
                "baseColorFactor" : [
                    0,
                    0.17464742064476013,
                    0.06301002949476242,
                    1
                ],
                "metallicFactor" : 0,
                "roughnessFactor" : 0.25
            }
        },
        {
            "doubleSided" : true,
            "name" : "Grey",
            "pbrMetallicRoughness" : {
                "baseColorFactor" : [
                    0.5088812708854675,
                    0.5088812708854675,
                    0.4969330132007599,
                    1
                ],
                "metallicFactor" : 0,
                "roughnessFactor" : 0.25
            }
        }
    ],
    "meshes" : [
        {
            "name" : "Cube.337",
            "primitives" : [
                {
                    "attributes" : {
                        "POSITION" : 0,
                        "TEXCOORD_0" : 1,
                        "NORMAL" : 2
                    },
                    "indices" : 3,
                    "material" : 0
                },
                {
                    "attributes" : {
                        "POSITION" : 4,
                        "TEXCOORD_0" : 5,
                        "NORMAL" : 6
                    },
                    "indices" : 7,
                    "material" : 1
                },
                {
                    "attributes" : {
                        "POSITION" : 8,
                        "TEXCOORD_0" : 9,
                        "NORMAL" : 10
                    },
                    "indices" : 11,
                    "material" : 2
                },
                {
                    "attributes" : {
                        "POSITION" : 12,
                        "TEXCOORD_0" : 13,
                        "NORMAL" : 14
                    },
                    "indices" : 15,
                    "material" : 3
                },
                {
                    "attributes" : {
                        "POSITION" : 16,
                        "TEXCOORD_0" : 17,
                        "NORMAL" : 18
                    },
                    "indices" : 19,
                    "material" : 4
                }
            ]
        }
    ],
    "accessors" : [
        {
            "bufferView" : 0,
            "componentType" : 5126,
            "count" : 2067,
            "max" : [
                -0.29235613346099854,
                0.38380441069602966,
                0.1273561716079712
            ],
            "min" : [
                -0.6116543412208557,
                -0.4464932680130005,
                -0.2367231696844101
            ],
            "type" : "VEC3"
        },
        {
            "bufferView" : 1,
            "componentType" : 5126,
            "count" : 2067,
            "type" : "VEC2"
        },
        {
            "bufferView" : 2,
            "componentType" : 5126,
            "count" : 2067,
            "type" : "VEC3"
        },
        {
            "bufferView" : 3,
            "componentType" : 5123,
            "count" : 6084,
            "type" : "SCALAR"
        },
        {
            "bufferView" : 4,
            "componentType" : 5126,
            "count" : 2067,
            "max" : [
                0.027236104011535645,
                0.38380441069602966,
                0.1273561716079712
            ],
            "min" : [
                -0.29206210374832153,
                -0.4464932680130005,
                -0.2367231696844101
            ],
            "type" : "VEC3"
        },
        {
            "bufferView" : 5,
            "componentType" : 5126,
            "count" : 2067,
            "type" : "VEC2"
        },
        {
            "bufferView" : 6,
            "componentType" : 5126,
            "count" : 2067,
            "type" : "VEC3"
        },
        {
            "bufferView" : 7,
            "componentType" : 5123,
            "count" : 6084,
            "type" : "SCALAR"
        },
        {
            "bufferView" : 8,
            "componentType" : 5126,
            "count" : 1019,
            "max" : [
                0.027236342430114746,
                0.7048907279968262,
                0.12735557556152344
            ],
            "min" : [
                -0.29206186532974243,
                0.38397809863090515,
                -0.23672378063201904
            ],
            "type" : "VEC3"
        },
        {
            "bufferView" : 9,
            "componentType" : 5126,
            "count" : 1019,
            "type" : "VEC2"
        },
        {
            "bufferView" : 10,
            "componentType" : 5126,
            "count" : 1019,
            "type" : "VEC3"
        },
        {
            "bufferView" : 11,
            "componentType" : 5123,
            "count" : 3516,
            "type" : "SCALAR"
        },
        {
            "bufferView" : 12,
            "componentType" : 5126,
            "count" : 1019,
            "max" : [
                0.34711968898773193,
                0.44454726576805115,
                0.12735557556152344
            ],
            "min" : [
                0.027821481227874756,
                0.12363460659980774,
                -0.23672378063201904
            ],
            "type" : "VEC3"
        },
        {
            "bufferView" : 13,
            "componentType" : 5126,
            "count" : 1019,
            "type" : "VEC2"
        },
        {
            "bufferView" : 14,
            "componentType" : 5126,
            "count" : 1019,
            "type" : "VEC3"
        },
        {
            "bufferView" : 15,
            "componentType" : 5123,
            "count" : 3516,
            "type" : "SCALAR"
        },
        {
            "bufferView" : 16,
            "componentType" : 5126,
            "count" : 2486,
            "max" : [
                0.627640426158905,
                0.12348830699920654,
                0.12735654413700104
            ],
            "min" : [
                0.027640432119369507,
                -0.4464932978153229,
                -0.23672279715538025
            ],
            "type" : "VEC3"
        },
        {
            "bufferView" : 17,
            "componentType" : 5126,
            "count" : 2486,
            "type" : "VEC2"
        },
        {
            "bufferView" : 18,
            "componentType" : 5126,
            "count" : 2486,
            "type" : "VEC3"
        },
        {
            "bufferView" : 19,
            "componentType" : 5123,
            "count" : 7908,
            "type" : "SCALAR"
        },
        {
            "bufferView" : 20,
            "componentType" : 5126,
            "count" : 240,
            "max" : [
                8
            ],
            "min" : [
                0.03333333333333333
            ],
            "type" : "SCALAR"
        },
        {
            "bufferView" : 21,
            "componentType" : 5126,
            "count" : 240,
            "type" : "VEC3"
        },
        {
            "bufferView" : 22,
            "componentType" : 5126,
            "count" : 240,
            "type" : "VEC4"
        },
        {
            "bufferView" : 23,
            "componentType" : 5126,
            "count" : 240,
            "type" : "VEC3"
        }
    ],
    "bufferViews" : [
        {
            "buffer" : 0,
            "byteLength" : 24804,
            "byteOffset" : 0,
            "target" : 34962
        },
        {
            "buffer" : 0,
            "byteLength" : 16536,
            "byteOffset" : 24804,
            "target" : 34962
        },
        {
            "buffer" : 0,
            "byteLength" : 24804,
            "byteOffset" : 41340,
            "target" : 34962
        },
        {
            "buffer" : 0,
            "byteLength" : 12168,
            "byteOffset" : 66144,
            "target" : 34963
        },
        {
            "buffer" : 0,
            "byteLength" : 24804,
            "byteOffset" : 78312,
            "target" : 34962
        },
        {
            "buffer" : 0,
            "byteLength" : 16536,
            "byteOffset" : 103116,
            "target" : 34962
        },
        {
            "buffer" : 0,
            "byteLength" : 24804,
            "byteOffset" : 119652,
            "target" : 34962
        },
        {
            "buffer" : 0,
            "byteLength" : 12168,
            "byteOffset" : 144456,
            "target" : 34963
        },
        {
            "buffer" : 0,
            "byteLength" : 12228,
            "byteOffset" : 156624,
            "target" : 34962
        },
        {
            "buffer" : 0,
            "byteLength" : 8152,
            "byteOffset" : 168852,
            "target" : 34962
        },
        {
            "buffer" : 0,
            "byteLength" : 12228,
            "byteOffset" : 177004,
            "target" : 34962
        },
        {
            "buffer" : 0,
            "byteLength" : 7032,
            "byteOffset" : 189232,
            "target" : 34963
        },
        {
            "buffer" : 0,
            "byteLength" : 12228,
            "byteOffset" : 196264,
            "target" : 34962
        },
        {
            "buffer" : 0,
            "byteLength" : 8152,
            "byteOffset" : 208492,
            "target" : 34962
        },
        {
            "buffer" : 0,
            "byteLength" : 12228,
            "byteOffset" : 216644,
            "target" : 34962
        },
        {
            "buffer" : 0,
            "byteLength" : 7032,
            "byteOffset" : 228872,
            "target" : 34963
        },
        {
            "buffer" : 0,
            "byteLength" : 29832,
            "byteOffset" : 235904,
            "target" : 34962
        },
        {
            "buffer" : 0,
            "byteLength" : 19888,
            "byteOffset" : 265736,
            "target" : 34962
        },
        {
            "buffer" : 0,
            "byteLength" : 29832,
            "byteOffset" : 285624,
            "target" : 34962
        },
        {
            "buffer" : 0,
            "byteLength" : 15816,
            "byteOffset" : 315456,
            "target" : 34963
        },
        {
            "buffer" : 0,
            "byteLength" : 960,
            "byteOffset" : 331272
        },
        {
            "buffer" : 0,
            "byteLength" : 2880,
            "byteOffset" : 332232
        },
        {
            "buffer" : 0,
            "byteLength" : 3840,
            "byteOffset" : 335112
        },
        {
            "buffer" : 0,
            "byteLength" : 2880,
            "byteOffset" : 338952
        }
    ],
    "buffers" : [
        {
            "byteLength" : 341832,
            "uri" : "data:application/octet-stream;base64,"
        }
    ]
}
